<svg width="23" height="22" viewBox="0 0 23 22" fill="none" xmlns="http://www.w3.org/2000/svg">
<path d="M10.4729 16.5002C12.1561 16.4998 13.7908 15.9551 15.1166 14.9528L19.2853 18.9825L20.6261 17.6863L16.4575 13.6567C17.4949 12.3749 18.0587 10.7943 18.0591 9.16683C18.0591 5.12341 14.6558 1.8335 10.4729 1.8335C6.29008 1.8335 2.88672 5.12341 2.88672 9.16683C2.88672 13.2102 6.29008 16.5002 10.4729 16.5002ZM10.4729 3.66683C13.6108 3.66683 16.1626 6.13358 16.1626 9.16683C16.1626 12.2001 13.6108 14.6668 10.4729 14.6668C7.33508 14.6668 4.78327 12.2001 4.78327 9.16683C4.78327 6.13358 7.33508 3.66683 10.4729 3.66683Z" fill="white"/>
<path d="M11.8118 7.87058C12.1712 8.21891 12.3693 8.67908 12.3693 9.16675H14.2659C14.2667 8.68497 14.1688 8.20781 13.9777 7.76286C13.7866 7.3179 13.5062 6.91397 13.1526 6.57441C11.7169 5.18841 9.22771 5.18841 7.79297 6.57441L9.13193 7.87241C9.85262 7.17758 11.0949 7.17941 11.8118 7.87058Z" fill="white"/>
</svg>
