<svg width="141" height="63" viewBox="0 0 141 63" fill="none" xmlns="http://www.w3.org/2000/svg">
<path d="M128.522 0H12.4779C5.58653 0 0 4.47715 0 10V53C0 58.5228 5.58653 63 12.4779 63H128.522C135.413 63 141 58.5228 141 53V10C141 4.47715 135.413 0 128.522 0Z" fill="#3C3D3F" fill-opacity="0.12"/>
<path d="M61.7614 38V23.4545H66.6761C67.8172 23.4545 68.75 23.6605 69.4744 24.0724C70.2036 24.4796 70.7434 25.0312 71.0938 25.7273C71.4441 26.4233 71.6193 27.1998 71.6193 28.0568C71.6193 28.9138 71.4441 29.6927 71.0938 30.3935C70.7481 31.0942 70.2131 31.6529 69.4886 32.0696C68.7642 32.4815 67.8362 32.6875 66.7045 32.6875H63.1818V31.125H66.6477C67.429 31.125 68.0563 30.9901 68.5298 30.7202C69.0033 30.4503 69.3466 30.0857 69.5597 29.6264C69.7775 29.1624 69.8864 28.6392 69.8864 28.0568C69.8864 27.4744 69.7775 26.9536 69.5597 26.4943C69.3466 26.035 69.0009 25.6752 68.5227 25.4148C68.0445 25.1496 67.41 25.017 66.6193 25.017H63.5227V38H61.7614ZM74.4567 38V23.4545H79.3714C80.5078 23.4545 81.4406 23.6487 82.1697 24.0369C82.8989 24.4205 83.4387 24.9484 83.7891 25.6207C84.1394 26.2931 84.3146 27.0578 84.3146 27.9148C84.3146 28.7718 84.1394 29.5317 83.7891 30.1946C83.4387 30.8575 82.9013 31.3783 82.1768 31.7571C81.4524 32.1312 80.5268 32.3182 79.3999 32.3182H75.4226V30.7273H79.343C80.1196 30.7273 80.7446 30.6136 81.218 30.3864C81.6963 30.1591 82.0419 29.8371 82.255 29.4205C82.4728 28.9991 82.5817 28.4972 82.5817 27.9148C82.5817 27.3324 82.4728 26.8234 82.255 26.3878C82.0372 25.9522 81.6892 25.616 81.2109 25.3793C80.7327 25.1378 80.1006 25.017 79.3146 25.017H76.218V38H74.4567ZM81.3033 31.4659L84.8828 38H82.8374L79.3146 31.4659H81.3033ZM89.011 23.4545V38H87.2496V23.4545H89.011ZM93.1392 23.4545L97.4574 35.6989H97.6278L101.946 23.4545H103.793L98.4517 38H96.6335L91.2926 23.4545H93.1392ZM105.405 38H103.558L108.899 23.4545H110.717L116.058 38H114.212L109.865 25.7557H109.751L105.405 38ZM106.087 32.3182H113.53V33.8807H106.087V32.3182ZM115.829 25.017V23.4545H126.738V25.017H122.164V38H120.403V25.017H115.829Z" fill="white"/>
<path d="M13 47.9966H25.5059V35.4846H13V47.9966Z" fill="#373435"/>
<path d="M38.3879 22.6145C38.3879 26.8691 38.3879 37.1302 38.3879 41.3847C37.2001 41.3847 36.9909 41.3847 35.8367 41.3847C34.7351 32.1019 28.9052 26.2707 19.6253 25.1686C19.6253 24.0138 19.6253 23.8053 19.6253 22.6145C23.8781 22.6145 34.135 22.6145 38.3879 22.6145V22.6145ZM13.0132 16V31.5734H16.3202C25.0228 31.5734 29.4354 35.9873 29.4354 44.6914V48H45V16H13.0132V16Z" fill="#60B238"/>
</svg>
