<svg width="118" height="63" viewBox="0 0 118 63" fill="none" xmlns="http://www.w3.org/2000/svg">
<path d="M107.558 0H10.4425C4.67526 0 0 4.47715 0 10V53C0 58.5228 4.67526 63 10.4425 63H107.558C113.325 63 118 58.5228 118 53V10C118 4.47715 113.325 0 107.558 0Z" fill="#3C3D3F" fill-opacity="0.12"/>
<path d="M67.0455 33.4545H68.9773L70.5966 35.5852L71.0227 36.1534L73.4375 39.3636H71.5057L69.9148 37.233L69.517 36.6932L67.0455 33.4545ZM74.0341 30.7273C74.0341 32.2614 73.7571 33.5871 73.2031 34.7045C72.6491 35.822 71.8892 36.6837 70.9233 37.2898C69.9574 37.8958 68.8542 38.1989 67.6136 38.1989C66.3731 38.1989 65.2699 37.8958 64.304 37.2898C63.3381 36.6837 62.5781 35.822 62.0241 34.7045C61.4702 33.5871 61.1932 32.2614 61.1932 30.7273C61.1932 29.1932 61.4702 27.8674 62.0241 26.75C62.5781 25.6326 63.3381 24.7708 64.304 24.1648C65.2699 23.5587 66.3731 23.2557 67.6136 23.2557C68.8542 23.2557 69.9574 23.5587 70.9233 24.1648C71.8892 24.7708 72.6491 25.6326 73.2031 26.75C73.7571 27.8674 74.0341 29.1932 74.0341 30.7273ZM72.3295 30.7273C72.3295 29.4678 72.1188 28.4048 71.6974 27.5384C71.2808 26.6719 70.715 26.0161 70 25.571C69.2898 25.1259 68.4943 24.9034 67.6136 24.9034C66.733 24.9034 65.9351 25.1259 65.2202 25.571C64.5099 26.0161 63.9441 26.6719 63.5227 27.5384C63.1061 28.4048 62.8977 29.4678 62.8977 30.7273C62.8977 31.9867 63.1061 33.0497 63.5227 33.9162C63.9441 34.7827 64.5099 35.4384 65.2202 35.8835C65.9351 36.3286 66.733 36.5511 67.6136 36.5511C68.4943 36.5511 69.2898 36.3286 70 35.8835C70.715 35.4384 71.2808 34.7827 71.6974 33.9162C72.1188 33.0497 72.3295 31.9867 72.3295 30.7273ZM78.7571 23.4545V38H76.9957V23.4545H78.7571ZM84.9308 38L80.9535 23.4545H82.7433L85.783 35.3011H85.9251L89.0217 23.4545H91.0103L94.1069 35.3011H94.2489L97.2887 23.4545H99.0785L95.1012 38H93.283L90.0728 26.4091H89.9592L86.7489 38H84.9308ZM103.034 23.4545V38H101.273V23.4545H103.034Z" fill="white"/>
<path d="M38.4442 35.1471C39.0004 35.3541 39.2144 36.1603 39.257 36.512C39.3426 37.1537 39.1506 37.4019 38.9366 37.4019C38.7226 37.4019 38.423 37.1537 38.1026 36.6573C37.7815 36.1603 37.6533 35.6023 37.8248 35.3123C37.9312 35.1259 38.1664 35.0435 38.4448 35.1471H38.4442ZM35.1944 37.4847C35.5366 37.4847 35.9213 37.6295 36.2637 37.9186C36.9262 38.4569 37.119 39.0772 36.7768 39.5324C36.5841 39.76 36.2637 39.9046 35.9002 39.9046C35.5366 39.9046 35.1519 39.7806 34.8953 39.553C34.2966 39.0566 34.1257 38.2286 34.5099 37.774C34.66 37.5876 34.8953 37.4847 35.1944 37.4847ZM27.7111 43.4625C19.5853 43.4625 13 37.0913 13 29.231C13 21.3706 19.586 15 27.7104 15C35.8357 15 42.4217 21.3713 42.4217 29.231C42.4217 31.8991 41.6521 34.4026 40.3482 36.5331C40.305 36.5949 40.1981 36.5743 40.1768 36.4915C39.6637 32.996 37.4613 31.0716 34.254 30.493C33.9755 30.4512 33.933 30.286 34.2966 30.2448C35.28 30.1618 36.6697 30.1824 37.3968 30.3066C37.4393 29.9548 37.4613 29.5826 37.4613 29.2104C37.4613 24.0181 33.099 19.798 27.7317 19.798C22.3653 19.798 18.0029 24.0181 18.0029 29.2104C18.0029 34.4026 22.3653 38.6227 27.7324 38.6227H28.181C28.0287 37.7829 27.964 36.9303 27.9882 36.0781C28.0102 35.4987 28.1384 35.4159 28.3949 35.8711C29.742 38.1257 31.6668 40.1528 35.4297 40.9598C38.5086 41.6218 41.5877 42.387 44.9019 46.4618C45.201 46.8135 44.7524 47.1856 44.4101 46.8965C41.0321 44.0001 37.953 43.0485 35.1519 43.0485C32.0084 43.0698 29.8704 43.4625 27.7104 43.4625H27.7111Z" fill="#FF8C00"/>
</svg>
