<svg width="124" height="63" viewBox="0 0 124 63" fill="none" xmlns="http://www.w3.org/2000/svg">
<path d="M113.027 0H10.9735C4.91298 0 0 4.47715 0 10V53C0 58.5228 4.91298 63 10.9735 63H113.027C119.087 63 124 58.5228 124 53V10C124 4.47715 119.087 0 113.027 0Z" fill="#3C3D3F" fill-opacity="0.12"/>
<path d="M69.7159 27.0909C69.6307 26.3712 69.285 25.8125 68.679 25.4148C68.0729 25.017 67.3295 24.8182 66.4489 24.8182C65.8049 24.8182 65.2415 24.9223 64.7585 25.1307C64.2803 25.339 63.9063 25.6255 63.6364 25.9901C63.3712 26.3546 63.2386 26.7689 63.2386 27.233C63.2386 27.6212 63.331 27.955 63.5156 28.2344C63.705 28.509 63.9465 28.7386 64.2401 28.9233C64.5336 29.1032 64.8414 29.2524 65.1634 29.3707C65.4853 29.4844 65.7812 29.5767 66.0511 29.6477L67.5284 30.0455C67.9072 30.1449 68.3286 30.2822 68.7926 30.4574C69.2614 30.6326 69.7088 30.8717 70.1349 31.1747C70.5658 31.473 70.9209 31.8565 71.2003 32.3253C71.4796 32.794 71.6193 33.3693 71.6193 34.0511C71.6193 34.8371 71.4134 35.5473 71.0014 36.1818C70.5942 36.8163 69.9976 37.3205 69.2116 37.6946C68.4304 38.0687 67.4811 38.2557 66.3636 38.2557C65.322 38.2557 64.42 38.0876 63.6577 37.7514C62.9001 37.4152 62.3035 36.9465 61.8679 36.3452C61.437 35.7438 61.1932 35.0455 61.1364 34.25H62.9545C63.0019 34.7992 63.1866 35.2538 63.5085 35.6136C63.8352 35.9687 64.2472 36.2339 64.7443 36.4091C65.2462 36.5795 65.786 36.6648 66.3636 36.6648C67.036 36.6648 67.6397 36.5559 68.1747 36.3381C68.7098 36.1155 69.1335 35.8078 69.446 35.4148C69.7585 35.017 69.9148 34.553 69.9148 34.0227C69.9148 33.5398 69.7798 33.1468 69.5099 32.8438C69.2401 32.5407 68.8849 32.2945 68.4446 32.1051C68.0043 31.9157 67.5284 31.75 67.017 31.608L65.2273 31.0966C64.0909 30.7699 63.1913 30.3035 62.5284 29.6974C61.8655 29.0914 61.5341 28.2983 61.5341 27.3182C61.5341 26.5038 61.7543 25.7936 62.1946 25.1875C62.6397 24.5767 63.2363 24.1032 63.9844 23.767C64.7372 23.4261 65.5777 23.2557 66.5057 23.2557C67.4432 23.2557 68.2765 23.4238 69.0057 23.7599C69.7348 24.0914 70.3125 24.5459 70.7386 25.1236C71.1695 25.7012 71.3968 26.357 71.4205 27.0909H69.7159ZM74.5153 38V23.4545H79.6005C80.6138 23.4545 81.4495 23.6297 82.1076 23.9801C82.7657 24.3258 83.2558 24.7921 83.5778 25.3793C83.8997 25.9616 84.0607 26.608 84.0607 27.3182C84.0607 27.9432 83.9495 28.4593 83.7269 28.8665C83.5091 29.2737 83.2203 29.5956 82.8604 29.8324C82.5053 30.0691 82.1194 30.2443 81.7028 30.358V30.5C82.1478 30.5284 82.5953 30.6847 83.0451 30.9688C83.4949 31.2528 83.8713 31.66 84.1744 32.1903C84.4774 32.7206 84.6289 33.3693 84.6289 34.1364C84.6289 34.8655 84.4632 35.5213 84.1317 36.1037C83.8003 36.6861 83.2771 37.1477 82.5621 37.4886C81.8472 37.8295 80.9168 38 79.771 38H74.5153ZM76.2766 36.4375H79.771C80.9215 36.4375 81.7383 36.215 82.2212 35.7699C82.7089 35.3201 82.9528 34.7756 82.9528 34.1364C82.9528 33.6439 82.8273 33.1894 82.5763 32.7727C82.3254 32.3513 81.9679 32.0152 81.5039 31.7642C81.0399 31.5085 80.4906 31.3807 79.8562 31.3807H76.2766V36.4375ZM76.2766 29.8466H79.5437C80.074 29.8466 80.5522 29.7424 80.9783 29.5341C81.4092 29.3258 81.7501 29.0322 82.0011 28.6534C82.2567 28.2746 82.3846 27.8295 82.3846 27.3182C82.3846 26.679 82.1621 26.1368 81.717 25.6918C81.2719 25.242 80.5664 25.017 79.6005 25.017H76.2766V29.8466ZM87.5231 38V23.4545H96.3015V25.017H89.2844V29.9318H95.8469V31.4943H89.2844V36.4375H96.4151V38H87.5231ZM99.4762 38V23.4545H104.391C105.527 23.4545 106.46 23.6487 107.189 24.0369C107.918 24.4205 108.458 24.9484 108.809 25.6207C109.159 26.2931 109.334 27.0578 109.334 27.9148C109.334 28.7718 109.159 29.5317 108.809 30.1946C108.458 30.8575 107.921 31.3783 107.196 31.7571C106.472 32.1312 105.546 32.3182 104.419 32.3182H100.442V30.7273H104.363C105.139 30.7273 105.764 30.6136 106.238 30.3864C106.716 30.1591 107.061 29.8371 107.275 29.4205C107.492 28.9991 107.601 28.4972 107.601 27.9148C107.601 27.3324 107.492 26.8234 107.275 26.3878C107.057 25.9522 106.709 25.616 106.23 25.3793C105.752 25.1378 105.12 25.017 104.334 25.017H101.238V38H99.4762ZM106.323 31.4659L109.902 38H107.857L104.334 31.4659H106.323Z" fill="white"/>
<path d="M41.6582 21.2422C42.4148 22.2195 43.0453 23.2914 43.5813 24.4264L29.0158 35.1772L22.8995 31.3309V26.7279L28.9843 30.5427L41.6582 21.2422Z" fill="#21A038"/>
<path d="M16.6887 31.016C16.6887 30.7953 16.6887 30.6061 16.7202 30.3855L13.0315 30.1963C13.0315 30.4485 13 30.7322 13 30.9845C13 35.3983 14.797 39.4022 17.6975 42.3027L20.3143 39.6859C18.0759 37.479 16.6887 34.4209 16.6887 31.016Z" fill="url(#paint0_linear_104_211)"/>
<path d="M28.9842 18.7204C29.2049 18.7204 29.3941 18.7204 29.6148 18.7519L29.8039 15.0633C29.5517 15.0633 29.268 15.0317 29.0157 15.0317C24.6019 15.0317 20.598 16.8288 17.6975 19.7293L20.3143 22.346C22.5212 20.1076 25.6108 18.7204 28.9842 18.7204Z" fill="url(#paint1_linear_104_211)"/>
<path d="M28.9844 43.3114C28.7637 43.3114 28.5745 43.3114 28.3538 43.2799L28.1647 46.9685C28.4169 46.9685 28.7006 47.0001 28.9529 47.0001C33.3666 47.0001 37.3706 45.203 40.2711 42.3025L37.6543 39.6858C35.4474 41.9557 32.3893 43.3114 28.9844 43.3114Z" fill="url(#paint2_linear_104_211)"/>
<path d="M35.9203 20.864L39.0415 18.5626C36.2987 16.3557 32.7992 15 28.9844 15V18.6887C31.5696 18.7202 33.9657 19.5084 35.9203 20.864Z" fill="url(#paint3_linear_104_211)"/>
<path d="M45.0001 31.0159C45.0001 30.0386 44.9055 29.0928 44.7478 28.147L41.3114 30.7007C41.3114 30.7952 41.3114 30.9214 41.3114 31.0159C41.3114 34.6416 39.735 37.8888 37.2444 40.1273L39.735 42.8701C42.9508 39.9696 45.0001 35.7135 45.0001 31.0159Z" fill="#21A038"/>
<path d="M28.9842 43.3111C25.3586 43.3111 22.1113 41.7348 19.8729 39.2441L17.13 41.7348C20.062 44.9821 24.2867 46.9998 28.9842 46.9998V43.3111Z" fill="url(#paint4_linear_104_211)"/>
<path d="M20.7557 21.9045L18.265 19.1616C15.0177 22.0936 13 26.3183 13 31.0158H16.6887C16.6887 27.4217 18.265 24.1429 20.7557 21.9045Z" fill="url(#paint5_linear_104_211)"/>
<defs>
<linearGradient id="paint0_linear_104_211" x1="17.316" y1="41.8539" x2="13.5405" y2="30.9756" gradientUnits="userSpaceOnUse">
<stop offset="0.1444" stop-color="#F2E913"/>
<stop offset="0.3037" stop-color="#E7E518"/>
<stop offset="0.5823" stop-color="#CADB26"/>
<stop offset="0.891" stop-color="#A3CD39"/>
</linearGradient>
<linearGradient id="paint1_linear_104_211" x1="18.749" y1="19.3016" x2="28.319" y2="15.6663" gradientUnits="userSpaceOnUse">
<stop offset="0.0592" stop-color="#0FA8E0"/>
<stop offset="0.5385" stop-color="#0099F9"/>
<stop offset="0.9234" stop-color="#0291EB"/>
</linearGradient>
<linearGradient id="paint2_linear_104_211" x1="27.9481" y1="43.8535" x2="39.3513" y2="41.2845" gradientUnits="userSpaceOnUse">
<stop offset="0.1226" stop-color="#A3CD39"/>
<stop offset="0.2846" stop-color="#86C339"/>
<stop offset="0.8693" stop-color="#21A038"/>
</linearGradient>
<linearGradient id="paint3_linear_104_211" x1="28.2265" y1="17.3601" x2="37.7108" y2="20.277" gradientUnits="userSpaceOnUse">
<stop offset="0.0566" stop-color="#0291EB"/>
<stop offset="0.79" stop-color="#0C8ACB"/>
</linearGradient>
<linearGradient id="paint4_linear_104_211" x1="18.0679" y1="42.3339" x2="28.2534" y2="46.1273" gradientUnits="userSpaceOnUse">
<stop offset="0.1324" stop-color="#F2E913"/>
<stop offset="0.2977" stop-color="#EBE716"/>
<stop offset="0.5306" stop-color="#D9E01F"/>
<stop offset="0.8023" stop-color="#BBD62D"/>
<stop offset="0.9829" stop-color="#A3CD39"/>
</linearGradient>
<linearGradient id="paint5_linear_104_211" x1="15.8067" y1="31.4613" x2="19.8891" y2="20.8757" gradientUnits="userSpaceOnUse">
<stop offset="0.0698" stop-color="#A3CD39"/>
<stop offset="0.2599" stop-color="#81C55F"/>
<stop offset="0.9216" stop-color="#0FA8E0"/>
</linearGradient>
</defs>
</svg>
