<svg width="158" height="63" viewBox="0 0 158 63" fill="none" xmlns="http://www.w3.org/2000/svg">
<path d="M144.018 0H13.9823C6.26009 0 0 4.47715 0 10V53C0 58.5228 6.26009 63 13.9823 63H144.018C151.74 63 158 58.5228 158 53V10C158 4.47715 151.74 0 144.018 0Z" fill="#3C3D3F" fill-opacity="0.12"/>
<path d="M44.5846 30.2849L45 28.9633L43.6257 29.0061C43.5097 29.0061 42.6657 28.9823 41.8469 28.3923C41.908 28.3983 41.969 28.4066 42.0313 28.4066C42.874 28.4066 43.6892 27.9022 44.016 27.1814L44.6073 25.8788C43.8664 25.8883 43.1888 25.7955 43.1888 25.7955C43.1828 25.7944 42.649 25.7265 42.0313 25.0996C41.5883 24.65 41.0401 24.4121 40.4463 24.4121C40.1866 24.4121 39.9544 24.4585 39.7544 24.5215C39.7855 24.4157 39.8155 24.3086 39.8322 24.198C40.0214 22.9787 39.2314 22.0485 39.2314 22.0497L38.1982 20.778L37.5579 22.2721C37.5555 22.2769 37.3938 22.6266 37.1041 22.7979C37.0168 22.3589 36.8024 21.8653 36.344 21.3931C35.4797 20.5032 34.4275 20.3712 33.8769 20.3712C33.6219 20.3712 33.44 20.3985 33.3956 20.4057L32.1483 20.6495C32.2201 20.3724 32.3733 19.8906 32.6535 19.4564L33.3418 18.3906L31.6096 18.5869L31.0577 17.4223L29.99 17.9695L29.0024 17L28.0172 17.9695L26.9458 17.4223L26.3952 18.5869L24.6642 18.3906L25.3537 19.4564C25.6338 19.8906 25.7871 20.3712 25.8577 20.6484L24.6679 20.4152L24.6271 20.4081C24.5672 20.3985 24.3865 20.3712 24.1303 20.3712C23.5797 20.3712 22.5275 20.5044 21.6655 21.3931C21.2059 21.8641 20.9916 22.3589 20.9031 22.7979C20.6158 22.629 20.4553 22.284 20.4553 22.284L19.8137 20.7816L18.7638 22.0615C18.6358 22.2269 18.0026 23.1012 18.1749 24.2003C18.1929 24.3098 18.2217 24.4169 18.2528 24.5228C18.054 24.4597 17.8218 24.4132 17.562 24.4132C16.9683 24.4132 16.42 24.6512 15.9759 25.1008C15.3606 25.7254 14.8291 25.7955 14.8339 25.7955C14.8339 25.7955 14.2725 25.8955 13.4034 25.88L13.9912 27.1826C14.318 27.9046 15.1344 28.4078 15.9759 28.4078C16.0393 28.4078 16.1004 28.3995 16.1627 28.3935C15.3462 28.9835 14.5024 29.0074 14.4006 29.0085L13 28.9633L13.4238 30.2837C13.6368 30.9641 14.3491 32.0918 15.7138 32.2132C15.5653 32.8318 15.2362 33.5241 14.5131 33.8226L13.4705 34.2496L14.0391 35.2334C14.3599 35.7639 15.1129 36.3849 16.1854 36.3849C16.4176 36.3837 16.6415 36.3611 16.857 36.3159C16.912 36.5586 16.9814 36.8012 17.0628 37.0415C17.3825 37.9861 17.1071 38.645 17.1036 38.6522L16.5888 39.7239L17.738 40.0249C17.7523 40.0297 18.0995 40.1237 18.534 40.1237C18.7316 40.1237 18.9195 40.1034 19.0967 40.0617C19.2307 40.0309 19.3588 39.9892 19.4821 39.9393C19.6305 40.2045 19.8113 40.446 20.0221 40.6626C20.7582 41.4131 21.8009 41.7938 23.1224 41.7938H23.1272L24.0705 41.7819L22.1217 42.586L23.6013 43.2961C24.1387 43.5567 24.7768 43.8648 25.4255 44.1003L25.2412 44.6023L25.7512 44.8331C25.7966 44.8533 26.777 45.2899 28.4075 45.3827C28.4075 45.3827 28.8013 45.4005 29.018 45.4005C29.2346 45.4005 29.6237 45.3814 29.6237 45.3814C31.2433 45.2863 32.2165 44.8545 32.262 44.8331L32.7731 44.6011L32.5864 44.0979C33.2544 43.8553 33.9152 43.5353 34.4299 43.2854L35.8819 42.5848L33.9391 41.7795L34.886 41.7914C36.2087 41.7914 37.2526 41.4108 37.9876 40.6589C38.1971 40.4437 38.3778 40.2021 38.5274 39.9369C38.6508 39.9869 38.78 40.0285 38.9141 40.0594C39.09 40.101 39.278 40.1213 39.4755 40.1213C39.9029 40.1213 40.2536 40.0273 40.2632 40.0249L41.4171 39.7216L40.9144 38.67C40.9024 38.6426 40.6271 37.9848 40.9467 37.0392C41.0281 36.7976 41.0963 36.555 41.1514 36.3135C41.3681 36.3587 41.5943 36.3825 41.8278 36.3825C43.1936 36.3825 43.8484 35.4273 43.9753 35.2203L44.5379 34.2473L43.4953 33.8214C42.771 33.5229 42.443 32.8293 42.2958 32.2119C43.6413 32.0978 44.3644 30.9701 44.5846 30.2849ZM25.9487 21.104L25.9343 21.1076L25.9463 21.0921L25.9487 21.104Z" fill="white"/>
<path d="M29.0038 21.0459C27.9 21.0471 27.0728 21.4063 26.8921 21.8286L29.0038 22.6565L31.1154 21.8286C30.9359 21.4063 30.1087 21.0471 29.0038 21.0459Z" fill="white"/>
<path d="M29.0252 42.9632H29.0229H29.0049H28.9846H28.9834C28.3142 42.9679 27.3936 42.8311 26.9495 42.7026L26.4156 44.1384C26.7676 44.2633 27.9599 44.5013 29.0049 44.5013C30.0475 44.5013 31.241 44.2621 31.5918 44.1384L31.0591 42.7026C30.6137 42.8323 29.6944 42.9679 29.0252 42.9632Z" fill="white"/>
<path d="M33.0655 41.5356C32.6681 41.7593 31.7811 42.0948 31.2651 42.2506L31.6985 43.4366C32.4969 43.2201 33.1553 42.9667 33.6999 42.6955L32.8009 42.3981L33.0655 41.5356Z" fill="white"/>
<path d="M24.9435 41.5356L25.2093 42.3981L24.3091 42.6955C24.8525 42.9667 25.5145 43.2201 26.3093 43.4366L26.7427 42.2506C26.2292 42.0948 25.3409 41.7581 24.9435 41.5356Z" fill="white"/>
<path d="M29.0037 19.6729C29.8357 19.6729 30.6521 19.8704 31.2794 20.2178C31.3368 20.0263 31.417 19.7943 31.526 19.5517L31.2889 19.5802L31.0399 19.6063L30.9346 19.3815L30.6174 18.7154L30.0392 19.0152L29.8141 19.1294L29.6346 18.9533L29.0061 18.3347L28.3789 18.9533L28.1993 19.1294L27.9742 19.0152L27.3925 18.7154L27.0789 19.3815L26.9711 19.6063L26.7221 19.5802L26.4851 19.5517C26.5941 19.7955 26.6731 20.0263 26.7317 20.2178C27.3602 19.8704 28.1742 19.6729 29.0037 19.6729Z" fill="white"/>
<path d="M41.7058 27.3718C41.8135 27.4087 41.9236 27.4254 42.0326 27.4254C42.5031 27.4254 42.9579 27.1232 43.1148 26.777C43.1148 26.777 42.2516 26.7247 41.3239 25.7885C41.0282 25.4852 40.7158 25.3948 40.4477 25.3948C40.0311 25.3948 39.7186 25.6136 39.7186 25.6136C40.8391 26.2061 41.0678 27.1577 41.7058 27.3718Z" fill="white"/>
<path d="M15.9751 27.4254C16.084 27.4254 16.1942 27.4087 16.2995 27.3718C16.94 27.1577 17.1698 26.2061 18.2902 25.6136C18.2902 25.6136 17.9766 25.3948 17.5624 25.3948C17.2931 25.3948 16.9806 25.4852 16.6838 25.7885C15.7572 26.7247 14.8942 26.777 14.8942 26.777C15.0485 27.1232 15.5046 27.4254 15.9751 27.4254Z" fill="white"/>
<path d="M42.01 31.239C42.0292 31.2401 42.046 31.2401 42.0663 31.2401C43.2406 31.2401 43.6393 29.9899 43.6393 29.9899H43.6165C43.401 29.9899 41.6545 29.9399 40.4203 28.3804C39.6075 27.3551 38.942 26.4534 37.6264 26.0989L37.4971 26.0763L37.4683 25.9455C37.4325 25.7456 37.5701 25.5588 37.8826 25.3566C39.6973 24.1754 38.4656 22.6694 38.4656 22.6694C38.4656 22.6694 37.9472 23.8744 36.7872 23.8744C36.7597 23.8744 36.7298 23.8732 36.701 23.8732C36.5694 23.8661 36.4424 23.8614 36.3144 23.834L36.1001 23.7924C36.1001 23.7924 36.4306 22.899 35.6333 22.0782C35.0323 21.4585 34.3009 21.3538 33.8784 21.3538C33.6653 21.3538 33.53 21.3812 33.53 21.3812C33.931 21.9022 34.2207 22.7658 33.7575 23.2986C33.3577 23.7567 32.3809 23.7793 32.3809 24.4621C32.3809 24.7511 32.6526 25.089 33.141 25.3923C34.6098 26.3118 36.0678 27.5311 36.6735 29.1655C37.4313 31.2044 36.5778 32.5569 35.3591 33.3325C35.3591 33.3325 35.7411 33.6822 36.2952 33.7263C36.4078 33.737 36.5179 33.7417 36.6209 33.7417C37.7904 33.7417 38.3949 33.1969 38.3949 33.1969C38.3949 33.1969 38.2955 33.9499 37.6862 34.6494C37.1248 35.2953 36.3875 35.6748 35.2634 35.6914C35.2634 35.6914 35.2275 36.2101 35.7254 36.6585C36.0439 36.9416 36.7801 37.0344 36.7801 37.0344C36.7801 37.0344 35.4022 37.3115 35.2502 39.3338C35.1676 40.4294 34.8863 40.81 34.8863 40.81H34.9114C38.1088 40.81 38.0262 38.0848 38.0262 38.0848C38.0262 38.0848 38.2488 38.8913 39.1407 39.1018C39.2484 39.1304 39.3633 39.1411 39.4735 39.1411C39.7608 39.1411 40.0098 39.0745 40.0098 39.0745C40.0098 39.0745 39.5429 38.0955 40.0061 36.7263C40.3904 35.5903 40.3281 34.7481 40.3281 34.7481C40.3281 34.7481 40.7591 35.3952 41.8269 35.4012H41.8377C42.7271 35.4012 43.1149 34.7314 43.1149 34.7314C40.983 33.8524 41.1936 31.0141 41.1936 31.0141C41.1936 31.0141 41.4702 31.2187 42.01 31.239ZM41.3684 34.2032C40.5017 33.7786 39.9535 32.6509 39.8206 32.2441C39.677 34.4804 38.5781 36.0328 37.2936 37.5269C36.6269 38.3013 36.3946 39.0542 36.3946 39.0542C36.3946 39.0542 36.5227 38.2014 37.0997 37.5066C38.298 36.0756 39.4363 34.2949 39.5213 32.2358C39.58 30.7988 39.2077 29.6331 38.6271 28.6731C38.9515 29.6735 38.9061 30.8987 37.8036 32.0419C37.8036 32.0419 39.9978 29.4285 36.9298 26.7496C35.7015 25.7301 34.3584 25.1009 33.6665 24.6547C36.166 25.4649 37.3858 24.5727 37.3858 24.5727C36.5873 25.2602 35.5543 25.2484 34.9139 25.1496C35.0874 25.2341 35.2681 25.3221 35.4633 25.4256C37.5701 26.5628 39.4639 28.434 39.787 31.026V31.0058C40.2779 33.5502 41.3684 34.2032 41.3684 34.2032Z" fill="white"/>
<path d="M21.2276 37.0344C21.2276 37.0344 21.9638 36.9428 22.2823 36.6585C22.779 36.2101 22.7443 35.6914 22.7443 35.6914C21.619 35.676 20.8829 35.2952 20.3178 34.6506C19.7134 33.9511 19.6128 33.1981 19.6128 33.1981C19.6128 33.1981 20.2173 33.7429 21.3856 33.7429C21.491 33.7429 21.5999 33.7382 21.7124 33.7275C22.2667 33.6835 22.6497 33.3337 22.6497 33.3337C21.4311 32.5582 20.5764 31.2044 21.333 29.1655C21.9399 27.5323 23.3967 26.3118 24.8655 25.3923C25.3539 25.089 25.6256 24.7523 25.6256 24.4621C25.6256 23.7793 24.6501 23.7567 24.2503 23.2986C23.7869 22.7658 24.0778 21.9009 24.4776 21.3812C24.4776 21.3812 24.3448 21.3538 24.1305 21.3538C23.7091 21.3538 22.9777 21.4585 22.3768 22.0782C21.5772 22.899 21.9087 23.7924 21.9087 23.7924L21.6945 23.834C21.5664 23.8614 21.4383 23.8661 21.3078 23.8732C21.2779 23.8732 21.2515 23.8744 21.2228 23.8744C20.0605 23.8744 19.5445 22.6706 19.5445 22.6706C19.5445 22.6706 18.3127 24.1765 20.1263 25.3578C20.4387 25.56 20.5752 25.7468 20.5393 25.9466L20.5106 26.0775L20.3789 26.1001C19.0657 26.4545 18.399 27.3563 17.5862 28.3817C16.3543 29.9388 14.6102 29.9899 14.3924 29.9899H14.3684C14.3684 29.9899 14.767 31.2401 15.9414 31.2401C15.9605 31.2401 15.9772 31.2401 15.9976 31.239C16.5375 31.2198 16.8153 31.0141 16.8153 31.0141C16.8153 31.0141 17.0235 33.8512 14.8939 34.7314C14.8939 34.7314 15.2818 35.4012 16.1712 35.4012H16.182C17.2509 35.3952 17.6807 34.7481 17.6807 34.7481C17.6807 34.7481 17.6184 35.5903 18.0015 36.7263C18.4648 38.0955 18.0004 39.0745 18.0004 39.0745C18.0004 39.0745 18.2493 39.1411 18.5354 39.1411C18.6467 39.1411 18.7605 39.1304 18.867 39.1018C19.7576 38.8913 19.9815 38.0848 19.9815 38.0848C19.9815 38.0848 19.9 40.81 23.0974 40.81H23.1202C23.1202 40.81 22.8401 40.4294 22.7587 39.3338C22.6054 37.3115 21.2276 37.0344 21.2276 37.0344ZM20.7141 37.5269C19.4296 36.0328 18.3319 34.4804 18.187 32.2441C18.0542 32.6497 17.5083 33.7786 16.6417 34.2032C16.6417 34.2032 17.731 33.5502 18.2206 31.0058V31.026C18.545 28.4352 20.4376 26.5628 22.5456 25.4256C22.7383 25.3209 22.9214 25.2329 23.0938 25.1496C22.4534 25.2484 21.4204 25.2602 20.6219 24.5727C20.6219 24.5727 21.8418 25.4649 24.3399 24.6547C23.6481 25.1009 22.3062 25.7301 21.078 26.7496C18.0087 29.4285 20.2041 32.0419 20.2041 32.0419C19.1004 30.8975 19.0561 29.6735 19.3806 28.6731C18.7988 29.6342 18.4276 30.7988 18.4876 32.2358C18.5713 34.2949 19.7097 36.0756 20.9057 37.5066C21.4838 38.2002 21.6143 39.0542 21.6143 39.0542C21.6143 39.0542 21.3796 38.3013 20.7141 37.5269Z" fill="white"/>
<path d="M26.6397 27.0709C26.6923 27.1267 26.7438 27.1874 26.7929 27.2481C26.8049 27.2624 26.8157 27.2755 26.8275 27.2921C26.8731 27.3528 26.9198 27.417 26.964 27.4825C26.9736 27.4955 26.9832 27.511 26.994 27.5265C27.0478 27.6073 27.0981 27.6906 27.1484 27.7762C27.6093 28.5674 28.3479 29.0396 29.0027 29.0408C29.6587 29.0396 30.3949 28.5674 30.8581 27.7762C30.9096 27.6883 30.961 27.6026 31.0149 27.5229C31.0233 27.511 31.0317 27.5003 31.0388 27.4884C31.0844 27.4206 31.1322 27.354 31.1825 27.2898C31.1933 27.2755 31.2029 27.2636 31.2124 27.2517C31.2639 27.1887 31.3166 27.1267 31.3704 27.0697C31.3801 27.0602 31.3872 27.0519 31.3956 27.0447C31.6302 26.8056 31.9104 26.6236 32.2766 26.5225L32.1139 26.4285H32.1042L31.4555 26.0538L30.7887 25.6743L29.0074 26.6378L29.0027 26.6343L28.9991 26.6378L27.2166 25.6743L26.5511 26.0526L25.9011 26.4273H25.8939L25.7286 26.5213C26.0962 26.6224 26.3751 26.802 26.6109 27.0412C26.6217 27.0507 26.6289 27.0614 26.6397 27.0709ZM28.2821 26.9935H29.0362H29.7891V27.5074C29.612 27.2921 29.2672 27.3362 29.2672 27.3362V28.0772C29.2672 28.0772 29.2804 28.4412 29.4085 28.5995H29.0362H28.6627C28.7931 28.4424 28.8051 28.0772 28.8051 28.0772V27.3362C28.8051 27.3362 28.4616 27.2921 28.2821 27.5074V26.9935Z" fill="white"/>
<path d="M28.8494 25.9967V22.9884L26.9221 22.3389L27.4309 25.2545L28.8494 25.9967ZM28.4352 23.7271V24.21L28.3419 24.1672C28.3371 24.1637 28.2006 24.1327 27.9612 23.9448C27.5661 23.6403 27.559 23.3596 27.559 23.3596L28.4352 23.7271Z" fill="white"/>
<path d="M30.578 25.2545L31.0844 22.3389L29.1583 22.9884V25.9967L30.578 25.2545ZM29.5725 23.7271L30.4487 23.3607C30.4487 23.3607 30.4415 23.6414 30.0453 23.946C29.8071 24.1339 29.6694 24.1648 29.6646 24.1685L29.5712 24.2113V23.7271H29.5725Z" fill="white"/>
<path d="M26.1237 32.9708C26.3116 33.0386 26.5391 33.053 26.6553 33.053C26.66 33.0386 26.666 33.0208 26.672 32.9994C26.6828 32.9649 26.6923 32.9316 26.6995 32.8935C26.7318 32.727 26.7438 32.5378 26.7462 32.4165C26.6672 32.3677 26.5559 32.2809 26.4936 32.1512C26.4218 32.0014 26.32 31.9324 26.1704 31.9324C25.9765 31.9324 25.7682 32.0478 25.6796 32.1025C25.609 32.5176 25.9166 32.8947 26.1237 32.9708Z" fill="white"/>
<path d="M30.3867 31.3745C30.0288 31.7611 29.3285 32.4344 29.2938 32.4689L29.2519 32.5117L27.0385 32.4772C27.0373 32.6949 27.0014 32.8805 26.9667 33.0161C26.9607 33.0387 26.9547 33.0625 26.9487 33.0863L29.5823 33.5562C29.8564 33.3658 30.6106 32.8186 30.9026 32.6045C30.6896 32.2952 30.6693 31.9289 30.7171 31.6707C30.5782 31.5815 30.4717 31.4816 30.3867 31.3745Z" fill="white"/>
<path d="M30.6867 28.7289C30.1767 29.2321 29.6871 29.4177 29.2502 29.4605C29.1712 29.4688 29.091 29.4735 29.0096 29.4735H29.0036H28.9988C28.9174 29.4735 28.836 29.4688 28.757 29.4605C28.6804 29.4534 28.6002 29.4414 28.52 29.4236C28.4913 29.5366 28.4553 29.7734 28.5584 29.997C28.6505 30.2004 28.8384 30.3514 29.1125 30.4514L29.2047 30.4871L29.2059 30.5858C29.2059 30.6155 29.2275 31.2555 29.9301 31.4327C30.045 31.315 30.1492 31.2091 30.2258 31.1211C30.0822 30.7857 30.1576 30.443 30.3659 30.2754C30.3563 30.311 30.2654 31.1508 30.9429 31.4625L31.0541 31.5149L31.0207 31.6326C31.0099 31.6683 30.7837 32.4807 31.6036 32.7829L31.7485 32.8376L31.6838 32.978C31.6695 33.0089 31.3475 33.7464 32.1052 34.1651H33.7488V32.8686C33.1646 32.7972 32.9168 32.3308 32.8534 32.0001C32.5816 31.9538 32.371 31.8372 32.2273 31.6469C31.8826 31.1961 32.1794 30.7833 32.183 30.7606C32.1818 30.7643 32.183 31.2044 32.4559 31.4756C32.5912 31.6064 32.7516 31.7075 32.9946 31.7301L33.1143 31.7408L33.1251 31.8622C33.1275 31.8883 33.1933 32.4832 33.75 32.5771L33.7488 29.9292C33.7488 29.5188 33.8697 29.106 34.0145 28.7253H30.6867V28.7289Z" fill="white"/>
<path d="M26.2639 29.9422L26.2196 31.6289L26.4123 31.6575L26.8839 30.0397L26.6445 29.5425L26.2639 29.9422Z" fill="white"/>
<path d="M31.4637 37.678C31.4781 37.678 31.4948 37.6803 31.5104 37.6839C31.8037 37.7672 31.8779 38.8187 32.3927 38.9127C32.4429 38.9234 32.4896 38.9258 32.5303 38.9258C32.6787 38.9258 32.7673 38.8627 32.8631 38.7509C32.8631 38.7509 32.6045 38.3465 32.4106 38.0741C32.1532 37.7172 31.9533 37.2854 31.4744 37.2854C31.4637 37.2854 31.4493 37.2854 31.4374 37.2866C31.2794 37.2949 31.1824 37.3711 31.1824 37.3711C30.9885 37.2497 30.8077 37.2081 30.6437 37.2081C30.3433 37.2081 30.1098 37.3449 29.9937 37.3449H29.9889L28.9187 37.2402C28.7512 37.2247 28.6195 37.057 28.5716 36.9916C28.5596 36.9737 28.5536 36.963 28.5536 36.963C28.5536 36.9345 28.5536 36.9047 28.5513 36.8785C28.5153 36.009 27.8378 35.6367 27.5972 35.6307C27.5972 35.6307 27.6259 35.4654 27.5601 35.4024L27.3243 35.6866L26.5497 35.3L27.1016 35.9412L26.6335 36.4634C26.5749 36.5229 26.5821 36.6038 26.606 36.6371L26.8083 36.8143L27.0645 36.6597C27.0777 36.6502 27.1004 36.6478 27.1291 36.6478C27.1997 36.6478 27.3063 36.6657 27.402 36.6657C27.5062 36.6657 27.5972 36.643 27.608 36.5455C27.5756 36.8678 27.2752 37.4281 27.4727 37.8683L27.6188 38.2002L26.6731 38.0645L26.2302 38.808C26.0937 39.0555 26.0721 39.3231 26.2037 39.4682L26.369 39.674C26.369 39.674 26.6013 39.429 26.6539 39.2684L26.5785 39.1863C26.515 39.1173 26.5186 39.0555 26.557 38.9805L26.8346 38.5225L27.9515 38.7842L28.0101 38.6844C28.0856 38.5594 28.1945 38.5213 28.3143 38.5213C28.3633 38.5213 28.4136 38.5273 28.4662 38.5356C28.6734 38.5761 29.0145 38.6308 29.3557 38.6308C29.7304 38.6308 30.1014 38.5641 30.299 38.3441C30.7035 38.9401 31.5235 39.0352 31.4589 39.3374L31.2435 40.358C31.3859 40.3521 31.5235 40.3425 31.654 40.3247L31.8587 39.2624C31.8815 39.1471 31.903 38.9912 31.903 38.9912C31.8241 38.9115 31.6325 38.7426 31.5247 38.538C31.3799 38.262 31.4589 38.1181 31.3236 37.7588C31.3285 37.7612 31.3692 37.678 31.4637 37.678ZM27.2859 36.1862C27.2309 36.185 27.1914 36.1386 27.1938 36.0839C27.1986 36.0316 27.2429 35.99 27.2968 35.9947C27.3518 35.9971 27.3913 36.0447 27.3889 36.0971C27.3841 36.1493 27.3386 36.1899 27.2859 36.1862Z" fill="white"/>
<path d="M25.7612 38.6438C25.7612 38.6438 26.1312 38.4928 26.1647 38.3845L26.1156 38.262C26.0809 38.1823 26.0857 38.0955 26.1528 38.0479L26.5526 37.7731L27.2205 37.9004C27.2205 37.9004 27.0996 37.7505 27.1116 37.5494L26.4747 37.415L25.8738 37.779C25.6165 37.9706 25.5973 38.2834 25.6823 38.4689L25.7612 38.6438Z" fill="white"/>
<path d="M30.4823 40.3734C30.602 40.3687 30.7337 40.3663 30.8786 40.3663C30.8786 40.3663 31.2221 39.3683 31.2413 39.3362C31.0485 39.2517 30.6487 39.0412 30.4943 38.9448C30.5961 39.0959 30.8438 39.2696 30.7948 39.4028L30.4823 40.3734Z" fill="white"/>
<path d="M33.7527 34.4543H24.2563V38.004C24.2563 39.4552 25.3134 40.364 26.8732 40.364C28.1768 40.364 28.5203 40.414 29.0051 40.8922C29.3391 40.5615 29.6157 40.4378 30.183 40.3914L30.1962 40.3367L30.4955 39.4172C30.4787 39.3969 29.9892 38.8438 29.9892 38.8438C29.7952 38.908 29.6324 38.9187 29.3583 38.9187C29.0769 38.9187 28.7597 38.8866 28.4162 38.8224C28.3814 38.8141 28.3492 38.8117 28.3168 38.8117C28.2749 38.8117 28.2713 38.8153 28.2605 38.8355L28.2007 38.933L28.0917 39.1115L27.8871 39.065L26.9761 38.8522L26.8516 39.0567L26.8708 39.0781L26.9821 39.1994L26.933 39.3577C26.866 39.5647 26.6481 39.8061 26.5823 39.8728L26.3549 40.1154L26.1477 39.8549L25.9921 39.661C25.8281 39.479 25.7898 39.1994 25.882 38.9068C25.8795 38.9093 25.876 38.9104 25.8724 38.9104L25.6151 39.0163L25.4989 38.7665L25.4175 38.5892C25.2774 38.2776 25.329 37.8219 25.706 37.5472L26.4398 37.1356L27.1378 37.2724C27.1545 37.2058 27.1796 36.9679 27.1999 36.9072C27.1868 36.9061 27.1736 36.9024 27.1605 36.9024L26.7582 37.0511L26.3704 36.7847C26.3704 36.7847 26.2184 36.6396 26.356 36.4945L26.7319 35.9294L25.7803 34.7422L27.243 35.3394L27.34 35.2192L27.5376 34.9849L27.7614 35.1967C27.8249 35.2573 27.8607 35.3322 27.8787 35.4071C28.2821 35.563 29.004 36.0234 29.0674 36.7716L28.8411 36.862V36.868C28.8926 36.9286 28.9357 36.9537 28.9489 36.956L29.9927 37.0583C30.019 37.0535 30.0526 37.0416 30.0897 37.0309C30.219 36.9869 30.4141 36.9238 30.6452 36.9238C30.8331 36.9238 31.015 36.9667 31.1898 37.0476C31.2544 37.0238 31.3334 37.0059 31.4244 37L31.4747 36.9988C32.0337 36.9988 32.3114 37.414 32.5341 37.7447C32.5712 37.8017 32.6083 37.8565 32.6466 37.91C32.8417 38.1836 33.0967 38.5845 33.1075 38.6011L33.2224 38.7795L33.0812 38.9425C32.9723 39.0674 32.8094 39.2138 32.5293 39.2138C32.4718 39.2138 32.4084 39.2078 32.3402 39.1947C32.2803 39.184 32.2265 39.1662 32.1737 39.1448C32.1654 39.1994 32.1546 39.2649 32.1439 39.3208L31.9607 40.27C33.056 40.0024 33.7515 39.1804 33.7515 38.0051L33.7527 34.4543Z" fill="#FFDD2D"/>
<path d="M24.2564 34.1689H31.6411C31.2724 33.7907 31.2772 33.3113 31.3718 32.9996C31.264 32.9485 31.1755 32.8867 31.0965 32.82C30.8079 33.0317 29.9269 33.6693 29.697 33.8288L29.648 33.862L26.7499 33.341H26.6912C26.6218 33.341 26.5201 33.3387 26.4087 33.3256C26.3776 33.4552 26.265 33.5445 26.1358 33.5445C26.1214 33.5445 26.1047 33.5433 26.0891 33.5397C26.0137 33.5266 25.9478 33.4885 25.9035 33.4255C25.8581 33.3637 25.8401 33.2899 25.8533 33.2138L25.8641 33.1519C25.5648 32.9425 25.2895 32.475 25.4116 31.9826L25.4235 31.9302L25.4654 31.9005C25.4714 31.8957 25.5217 31.8625 25.5959 31.8196L25.3852 31.7875C25.3062 31.7732 25.2535 31.7006 25.2655 31.6233C25.2787 31.5448 25.3529 31.4889 25.4307 31.5044L25.9323 31.5829L25.9778 29.8271L26.7247 29.042L27.1904 30.0162L26.6984 31.7054L27.1413 31.7744C27.2191 31.7863 27.273 31.8589 27.261 31.9386C27.2491 32.0088 27.1892 32.0575 27.1186 32.0575C27.1114 32.0575 27.103 32.0575 27.0959 32.0564L26.7355 31.9981C26.7403 32.0088 26.7475 32.0147 26.7522 32.0266C26.7906 32.1051 26.8756 32.1622 26.9259 32.186L29.1356 32.2205C29.229 32.1301 29.4612 31.904 29.6995 31.665C29.156 31.4604 28.9585 30.994 28.9249 30.6848C28.6209 30.5563 28.4114 30.3636 28.2953 30.1126C28.154 29.8021 28.2044 29.4916 28.2414 29.3406C27.9469 29.2335 27.6369 29.0384 27.3209 28.7268H23.993C24.1355 29.1074 24.2564 29.5202 24.2564 29.9306V34.1689Z" fill="#FFDD2D"/>
<path d="M27.298 35.995C27.2441 35.9902 27.1986 36.0319 27.1951 36.0842C27.1914 36.1389 27.2321 36.1853 27.2872 36.1865C27.3398 36.1912 27.3865 36.1507 27.3913 36.0972C27.3913 36.0449 27.353 35.9961 27.298 35.995Z" fill="black"/>
<path d="M33.7393 42.4313L33.1922 42.2232L33.343 41.6617L33.5094 41.0491C33.5094 41.0491 32.5398 41.5713 31.174 41.9638C30.786 42.0745 30.4928 42.1244 30.4928 42.1244V42.5408C30.4928 42.5408 29.7625 42.6669 29.024 42.6669H29.0156H29.0049H28.9905H28.9821C28.2435 42.6669 27.5133 42.5408 27.5133 42.5408V42.1244C27.5133 42.1244 27.2188 42.0745 26.8322 41.9638C25.4663 41.5713 24.4979 41.0491 24.4979 41.0491L24.6619 41.6617L24.8163 42.2232L24.268 42.4313L23.6599 42.6574C24.3578 42.9916 25.3239 43.4793 26.2085 43.7196L26.0003 44.2859C26.0003 44.2859 27.1218 44.7938 28.9905 44.7985V44.7997H28.9965H29.0049H29.0121H29.0169V44.7985C30.8878 44.7938 32.0083 44.2859 32.0083 44.2859L31.7988 43.7196C32.6835 43.4793 33.6519 42.9916 34.3462 42.6574L33.7393 42.4313ZM24.3088 42.6954L25.2089 42.398L24.9432 41.5356C25.3394 41.7593 26.2289 42.0947 26.7436 42.2505L26.309 43.4365C25.5142 43.2188 24.8523 42.9654 24.3088 42.6954ZM29.0049 44.5011C27.9599 44.5011 26.7663 44.2621 26.4156 44.1384L26.9495 42.7026C27.3924 42.831 28.3141 42.9679 28.9833 42.9631H28.9845H29.0049H29.0228H29.0252C29.6944 42.9679 30.6137 42.831 31.059 42.7026L31.5917 44.1384C31.2409 44.2632 30.0487 44.5011 29.0049 44.5011ZM31.6983 43.4365L31.2649 42.2505C31.7809 42.0947 32.6679 41.7593 33.0653 41.5356L32.8007 42.398L33.6997 42.6954C33.1551 42.9654 32.4967 43.2188 31.6983 43.4365Z" fill="black"/>
<path d="M29.0036 20.0204C30.1169 20.0204 31.0076 20.3868 31.4995 20.7782C31.4995 20.7782 31.6456 19.9038 32.1448 19.1318L31.2482 19.2329L30.7789 18.242L29.8775 18.7036L29.0036 17.8447L28.1322 18.7036L27.2296 18.242L26.7616 19.2329L25.865 19.1318C26.3641 19.9038 26.5102 20.7782 26.5102 20.7782C27.0034 20.3868 27.8916 20.0204 29.0036 20.0204ZM26.7209 19.5803L26.9699 19.6065L27.0776 19.3816L27.3913 18.7154L27.973 19.014L28.198 19.1283L28.3777 18.9522L29.0049 18.3336L29.6333 18.9522L29.8129 19.1283L30.0379 19.014L30.6161 18.7154L30.9334 19.3816L31.0387 19.6065L31.2877 19.5803L31.5247 19.5517C31.4157 19.7956 31.3356 20.0263 31.2781 20.2179C30.6508 19.8705 29.8344 19.6731 29.0025 19.6731C28.1741 19.6731 27.3589 19.8705 26.7293 20.2179C26.6706 20.0263 26.5916 19.7944 26.4827 19.5517L26.7209 19.5803Z" fill="black"/>
<path d="M42.065 31.6217C43.5051 31.6217 43.9863 30.1657 44.0066 30.1038L44.1671 29.5912L43.6271 29.6078H43.6248C43.4344 29.6078 41.846 29.5662 40.7194 28.1435L40.6129 28.0115C39.8767 27.0812 39.1789 26.1974 37.9315 25.7941C37.9674 25.762 38.0189 25.7216 38.0896 25.6763C38.7515 25.2434 39.137 24.7176 39.2339 24.1074C39.3752 23.189 38.7862 22.4574 38.7599 22.4277L38.3589 21.9352L38.1087 22.5193C38.092 22.5562 37.6706 23.4912 36.7847 23.4912H36.7189C36.6579 23.4876 36.6004 23.4852 36.5429 23.4805C36.5741 23.0629 36.4974 22.417 35.9085 21.8115C35.201 21.0823 34.332 20.9729 33.8771 20.9729C33.6341 20.9729 33.4725 21.0026 33.4557 21.005L32.8499 21.124L33.2234 21.6129C33.5168 21.99 33.7825 22.6858 33.4677 23.0499C33.3671 23.1652 33.16 23.2592 32.9613 23.3532C32.5531 23.5399 31.9965 23.7993 31.9965 24.4606C31.9965 24.8889 32.3305 25.3362 32.9362 25.7168C34.7294 26.8374 35.8355 28.0067 36.3131 29.2974C37.0517 31.2827 36.088 32.4151 35.1519 33.0111L34.7318 33.2799L35.0992 33.6154C35.1483 33.6582 35.5984 34.052 36.2628 34.1091C36.3885 34.1174 36.5094 34.1246 36.6219 34.1246C37.0481 34.1246 37.4108 34.0579 37.7053 33.9687C37.6239 34.1103 37.5245 34.2542 37.3988 34.3993C36.8638 35.0155 36.2054 35.2962 35.2584 35.3105L34.9066 35.3165L34.879 35.6674C34.8754 35.7375 34.8491 36.3883 35.4692 36.9414C35.5637 37.027 35.6786 37.0972 35.7984 37.1555C35.3782 37.5314 34.9509 38.1857 34.8683 39.3074C34.7988 40.2435 34.5738 40.5897 34.5713 40.5933L34.1823 41.1833L34.885 41.1928C36.0461 41.1928 36.9356 40.8741 37.552 40.2435C37.916 39.8701 38.1243 39.449 38.2475 39.0754C38.4498 39.2467 38.7108 39.3967 39.0508 39.4763C39.1801 39.506 39.3213 39.5227 39.4733 39.5227C39.8013 39.5227 40.0755 39.4537 40.1066 39.4466L40.5555 39.3276L40.3568 38.9113C40.3424 38.878 39.9678 38.0429 40.3712 36.851C40.5447 36.3359 40.6333 35.8744 40.6764 35.5151C40.9589 35.6615 41.3372 35.7827 41.8267 35.784C42.9376 35.784 43.4273 34.9596 43.45 34.9251L43.6691 34.5468L43.2633 34.3803C41.9393 33.8343 41.646 32.3676 41.5874 31.573C41.7071 31.5955 41.8435 31.6169 41.9979 31.6217H42.065ZM43.1148 34.7313C43.1148 34.7313 42.727 35.4009 41.8376 35.4009H41.8267C40.759 35.395 40.328 34.7478 40.328 34.7478C40.328 34.7478 40.3903 35.5901 40.0048 36.7261C39.5416 38.0952 40.0084 39.0742 40.0084 39.0742C40.0084 39.0742 39.7595 39.1409 39.4721 39.1409C39.3621 39.1409 39.2472 39.1302 39.1393 39.1016C38.2475 38.8911 38.0249 38.0845 38.0249 38.0845C38.0249 38.0845 38.1075 40.8098 34.9102 40.8098H34.885C34.885 40.8098 35.1663 40.4291 35.2501 39.3335C35.4021 37.3114 36.78 37.0342 36.78 37.0342C36.78 37.0342 36.045 36.9426 35.7265 36.6583C35.2286 36.2098 35.2633 35.6912 35.2633 35.6912C36.3885 35.6757 37.1247 35.2951 37.6861 34.6491C38.2943 33.9496 38.3948 33.1967 38.3948 33.1967C38.3948 33.1967 37.7903 33.7415 36.6207 33.7415C36.5178 33.7415 36.4076 33.7368 36.2952 33.726C35.7421 33.6821 35.3591 33.3323 35.3591 33.3323C36.5765 32.5567 37.4311 31.203 36.6734 29.1641C36.0665 27.5308 34.6085 26.3104 33.1409 25.3908C32.6525 25.0876 32.3807 24.7509 32.3807 24.4606C32.3807 23.7778 33.3575 23.7564 33.7585 23.2972C34.2207 22.7644 33.9309 21.8995 33.5299 21.3797C33.5299 21.3797 33.6652 21.3523 33.8783 21.3523C34.3008 21.3523 35.0322 21.4582 35.6332 22.0768C36.4316 22.8976 36.1 23.7909 36.1 23.7909L36.3143 23.8325C36.4424 23.8599 36.5693 23.8647 36.701 23.8706C36.7297 23.8706 36.7584 23.8718 36.7871 23.8718C37.9471 23.8718 38.4654 22.6668 38.4654 22.6668C38.4654 22.6668 39.6984 24.1739 37.8837 25.3539C37.5712 25.5562 37.4336 25.743 37.4695 25.9428L37.4982 26.0737L37.6274 26.0963C38.943 26.4507 39.6087 27.3525 40.4214 28.3778C41.6556 29.9374 43.4021 29.9873 43.6176 29.9873H43.6404C43.6404 29.9873 43.2417 31.2375 42.0674 31.2375C42.0482 31.2375 42.0315 31.2375 42.0111 31.2363C41.4712 31.2173 41.1948 31.0115 41.1948 31.0115C41.1948 31.0115 40.9828 33.8509 43.1148 34.7313Z" fill="black"/>
<path d="M39.5355 25.9515C40.073 26.2358 40.3855 26.6164 40.6596 26.9543C40.929 27.2838 41.1852 27.6014 41.585 27.7334C41.7274 27.7822 41.8782 27.8048 42.0314 27.8048C42.6324 27.8048 43.2357 27.4396 43.4644 26.934L43.6942 26.4273L43.1375 26.394C43.1112 26.3928 42.3954 26.3286 41.5981 25.5185C41.2701 25.1866 40.8739 25.0117 40.4465 25.0117C39.9246 25.0117 39.538 25.2711 39.4949 25.2972L38.9825 25.6553L39.5355 25.9515ZM40.4478 25.3948C40.7159 25.3948 41.0284 25.4852 41.324 25.7885C42.2517 26.7247 43.1148 26.777 43.1148 26.777C42.958 27.122 42.5031 27.4253 42.0326 27.4253C41.9237 27.4253 41.8148 27.4086 41.7059 27.3718C41.0678 27.1576 40.8392 26.206 39.7175 25.6137C39.7175 25.6137 40.0312 25.3948 40.4478 25.3948Z" fill="black"/>
<path d="M39.7871 31.0058V31.0248C39.4639 28.434 37.5701 26.5628 35.4633 25.4244C35.2681 25.3209 35.0886 25.2329 34.9138 25.1485C35.5555 25.2472 36.5885 25.2591 37.3857 24.5715C37.3857 24.5715 36.1659 25.4637 33.6665 24.6536C34.3584 25.0997 35.7027 25.729 36.9297 26.7484C39.9977 29.4273 37.8023 32.0407 37.8023 32.0407C38.9048 30.8975 38.9503 29.6723 38.6259 28.6719C39.2065 29.6319 39.5776 30.7976 39.5201 32.2346C39.4351 34.2937 38.2967 36.0745 37.0984 37.5055C36.5227 38.2002 36.3934 39.0531 36.3934 39.0531C36.3934 39.0531 36.6256 38.3001 37.2923 37.5257C38.5769 36.0317 39.6745 34.4793 39.8182 32.2429C39.9511 32.6486 40.4982 33.7775 41.366 34.2021C41.3684 34.2033 40.2779 33.5502 39.7871 31.0058Z" fill="black"/>
<path d="M23.4362 40.5923C23.4349 40.5887 23.2123 40.2426 23.1405 39.3064C23.0567 38.1846 22.6305 37.5304 22.2092 37.1545C22.3313 37.0974 22.4438 37.0273 22.5384 36.9404C23.1573 36.3872 23.131 35.7365 23.1274 35.6664L23.1034 35.3155L22.7491 35.3096C21.8046 35.2941 21.145 35.0133 20.6099 34.3983C20.4854 34.2532 20.3849 34.1092 20.3034 33.9677C20.5979 34.0569 20.9583 34.1236 21.3856 34.1236C21.5005 34.1236 21.619 34.1164 21.7447 34.1081C22.4091 34.0509 22.8592 33.6584 22.9095 33.6144L23.277 33.2789L22.8568 33.0102C21.9171 32.413 20.957 31.2805 21.6944 29.2963C22.1721 28.0057 23.277 26.8364 25.0726 25.7158C25.6783 25.3352 26.0099 24.8879 26.0099 24.4596C26.0099 23.7983 25.4544 23.5378 25.0463 23.3522C24.8475 23.2582 24.6405 23.1642 24.5398 23.0489C24.2238 22.686 24.4908 21.989 24.7829 21.6119L25.1588 21.123L24.5507 21.004C24.5327 21.0016 24.3735 20.9719 24.1293 20.9719C23.6744 20.9719 22.8077 21.0813 22.099 21.8105C21.5089 22.4172 21.4311 23.0631 21.4611 23.4795C21.4035 23.4842 21.3461 23.4866 21.2863 23.4902H21.2216C20.3334 23.4902 19.9133 22.5552 19.8965 22.5183L19.6463 21.9343L19.2416 22.4267C19.2189 22.4564 18.6276 23.1892 18.7712 24.1064C18.867 24.7166 19.2525 25.2424 19.9144 25.6754C19.9862 25.7205 20.0365 25.761 20.0725 25.7932C18.8262 26.1964 18.1296 27.0814 17.3934 28.0116L17.2869 28.1437C16.1616 29.5664 14.5695 29.608 14.3792 29.608L13.8369 29.5914L14.0021 30.104C14.0212 30.1659 14.5013 31.6219 15.9425 31.6219L16.012 31.6195C16.164 31.6148 16.3005 31.5946 16.4226 31.5708C16.3627 32.3642 16.0695 33.8309 14.7443 34.3781L14.3397 34.5447L14.5588 34.9229C14.5803 34.9574 15.0711 35.7818 16.1844 35.7818C16.6703 35.7806 17.0486 35.6593 17.3323 35.513C17.3754 35.8722 17.464 36.3337 17.6376 36.8488C18.041 38.0407 17.6652 38.8758 17.6508 38.9091L17.4521 39.3254L17.9021 39.4444C17.9321 39.4515 18.2086 39.5205 18.5354 39.5205C18.6886 39.5205 18.8299 39.5039 18.9568 39.4741C19.2979 39.3944 19.5613 39.2446 19.7612 39.0733C19.8833 39.4468 20.0928 39.8679 20.4555 40.2414C21.0732 40.8718 21.9614 41.1907 23.1225 41.1907L23.8265 41.1811L23.4362 40.5923ZM23.0962 40.81C19.8988 40.81 19.9803 38.0848 19.9803 38.0848C19.9803 38.0848 19.7576 38.8912 18.8658 39.1018C18.7593 39.1303 18.6455 39.141 18.5342 39.141C18.2469 39.141 17.9991 39.0744 17.9991 39.0744C17.9991 39.0744 18.4636 38.0955 18.0003 36.7263C17.6173 35.5903 17.6795 34.748 17.6795 34.748C17.6795 34.748 17.2497 35.3952 16.1808 35.4011H16.17C15.2806 35.4011 14.8927 34.7314 14.8927 34.7314C17.0235 33.8523 16.814 31.014 16.814 31.014C16.814 31.014 16.5375 31.2187 15.9964 31.2389C15.9773 31.2401 15.9593 31.2401 15.9402 31.2401C14.7647 31.2401 14.3672 29.9899 14.3672 29.9899H14.3911C14.6078 29.9899 16.352 29.9399 17.5861 28.3804C18.3989 27.355 19.0657 26.4545 20.3789 26.0989L20.5106 26.0763L20.5392 25.9454C20.5752 25.7456 20.4387 25.5588 20.1263 25.3566C18.3115 24.1754 19.5445 22.6694 19.5445 22.6694C19.5445 22.6694 20.0605 23.8732 21.2229 23.8732C21.2515 23.8732 21.2779 23.872 21.3078 23.872C21.4383 23.8648 21.5676 23.8601 21.6944 23.8327L21.9087 23.7911C21.9087 23.7911 21.5772 22.8978 22.3768 22.077C22.9777 21.4572 23.7091 21.3526 24.1305 21.3526C24.3448 21.3526 24.4777 21.3799 24.4777 21.3799C24.0778 21.9009 23.7882 22.7646 24.2502 23.2975C24.65 23.7555 25.6256 23.778 25.6256 24.4608C25.6256 24.7499 25.3539 25.0877 24.8655 25.3911C23.3967 26.3106 21.9387 27.5311 21.3329 29.1643C20.5764 31.2032 21.4299 32.5557 22.6498 33.3325C22.6498 33.3325 22.2667 33.6822 21.7124 33.7262C21.5999 33.7369 21.491 33.7416 21.3856 33.7416C20.2173 33.7416 19.6128 33.1969 19.6128 33.1969C19.6128 33.1969 19.7133 33.9498 20.3178 34.6493C20.8829 35.2952 21.619 35.6759 22.7443 35.6914C22.7443 35.6914 22.7802 36.21 22.2822 36.6585C21.9626 36.9416 21.2276 37.0343 21.2276 37.0343C21.2276 37.0343 22.6066 37.3115 22.7574 39.3337C22.8401 40.4293 23.119 40.81 23.119 40.81H23.0962Z" fill="black"/>
<path d="M15.975 27.8061C16.1294 27.8061 16.2802 27.7835 16.4227 27.7347C16.8249 27.6026 17.0799 27.285 17.3492 26.9555C17.6245 26.6177 17.9346 26.237 18.4721 25.9527L19.0251 25.6577L18.5116 25.2997C18.4685 25.2723 18.083 25.0142 17.5623 25.0142C17.1338 25.0142 16.7364 25.1879 16.4095 25.5209C15.6123 26.3298 14.8977 26.3953 14.8713 26.3965L14.3147 26.4285L14.5433 26.9365C14.7731 27.4397 15.3752 27.8061 15.975 27.8061ZM16.6837 25.7898C16.9806 25.4865 17.293 25.396 17.5623 25.396C17.9765 25.396 18.2902 25.6149 18.2902 25.6149C17.1696 26.2085 16.9398 27.1589 16.2994 27.3731C16.1941 27.4099 16.0839 27.4266 15.975 27.4266C15.5046 27.4266 15.0497 27.1244 14.894 26.7783C14.894 26.7771 15.7559 26.7248 16.6837 25.7898Z" fill="black"/>
<path d="M18.4874 32.2361C18.4274 30.7991 18.7986 29.6333 19.3803 28.6734C19.0559 29.6738 19.1002 30.899 20.2039 32.0422C20.2039 32.0422 18.0085 29.4288 21.0778 26.7498C22.306 25.7305 23.6491 25.1011 24.3397 24.6551C21.8415 25.4652 20.6217 24.573 20.6217 24.573C21.4189 25.2606 22.452 25.2486 23.0936 25.1487C22.9201 25.2332 22.7381 25.3213 22.5453 25.4247C20.4361 26.5631 18.5436 28.4343 18.2192 31.0251V31.0049C17.7296 33.5493 16.6403 34.2024 16.6403 34.2024C17.507 33.7777 18.0528 32.6501 18.1857 32.2432C18.3305 34.4796 19.4282 36.0319 20.7127 37.526C21.3794 38.3004 21.6141 39.0533 21.6141 39.0533C21.6141 39.0533 21.4836 38.2005 20.9054 37.5058C19.7095 36.0771 18.5711 34.2952 18.4874 32.2361Z" fill="black"/>
<path d="M28.282 26.9934V27.5073C28.4604 27.2919 28.8052 27.336 28.8052 27.336V28.0771C28.8052 28.0771 28.7932 28.4411 28.6627 28.5993H29.0361H29.4085C29.2804 28.4422 29.2672 28.0771 29.2672 28.0771V27.336C29.2672 27.336 29.6119 27.2919 29.7891 27.5073V26.9934H29.0361H28.282Z" fill="black"/>
<path d="M27.9611 23.9456C28.1993 24.1336 28.337 24.1645 28.3417 24.1681L28.4351 24.2109V23.7267L27.5588 23.3604C27.5588 23.3616 27.5672 23.6411 27.9611 23.9456Z" fill="black"/>
<path d="M30.0456 23.9456C30.4419 23.6411 30.449 23.3604 30.449 23.3604L29.5728 23.7267V24.2109L29.665 24.1681C29.671 24.1645 29.8074 24.1336 30.0456 23.9456Z" fill="black"/>
<path d="M31.6241 21.9747C31.6241 21.2408 30.3803 20.5806 29.0072 20.5806H29.0061H29.0025H28.9988C27.6258 20.5806 26.3821 21.2408 26.3821 21.9747L26.4097 22.1555L26.9578 25.2828L26.4072 25.6004L24.9827 26.4272H24.9875C24.9875 26.4272 24.6667 26.5902 24.5183 26.6913C23.976 27.066 23.8611 27.612 24.1759 27.838C24.2537 27.3931 24.608 26.9268 25.2712 26.9268C25.7489 26.9268 26.1128 27.1719 26.4072 27.5394C26.4826 27.6322 26.5545 27.7309 26.6215 27.838C26.7041 27.9724 26.7867 28.0902 26.8693 28.2044H23.2003C23.4697 28.7432 23.7258 29.3142 23.7258 29.934V38.0038C23.7258 39.9571 25.2377 40.8897 26.8729 40.8897C28.137 40.8897 28.307 40.8327 29.0048 41.5226C29.6991 40.8314 29.8691 40.8897 31.1344 40.8897C32.7708 40.8897 34.2803 39.9571 34.2803 38.0038V29.934C34.2803 29.3142 34.5365 28.7432 34.807 28.2044H31.1369C31.2183 28.0914 31.3008 27.9724 31.3835 27.838C31.4516 27.7309 31.5223 27.6322 31.5965 27.5394C31.8934 27.1706 32.2561 26.9268 32.7337 26.9268C33.3969 26.9268 33.75 27.3919 33.829 27.838C34.1438 27.612 34.0302 27.066 33.4843 26.6913C33.3382 26.5902 33.0174 26.4272 33.0174 26.4272H33.0222L31.5977 25.6004L31.0495 25.2828L31.5977 22.1555L31.6241 21.9747ZM26.922 22.3387L28.8493 22.9882V25.9966L27.4307 25.2531L26.922 22.3387ZM27.3206 28.729C27.6366 29.0418 27.9467 29.2357 28.2412 29.3428C28.2028 29.4938 28.1525 29.8055 28.295 30.116C28.4111 30.3657 28.6218 30.5585 28.9247 30.687C28.9582 30.9963 29.1545 31.4613 29.6991 31.6672C29.4609 31.9063 29.2287 32.131 29.1342 32.2227L26.9256 32.1882C26.8753 32.1631 26.7903 32.1073 26.752 32.0276C26.7472 32.0169 26.74 32.0109 26.7364 31.999L27.0968 32.0573C27.1052 32.0585 27.1123 32.0585 27.1195 32.0585C27.1889 32.0585 27.25 32.0109 27.262 31.9396C27.274 31.8599 27.2201 31.7873 27.1423 31.7754L26.6994 31.7064L27.1913 30.0185L26.7257 29.0442L25.9787 29.8293L25.9332 31.5851L25.4316 31.5066C25.3538 31.4911 25.2796 31.5482 25.2665 31.6255C25.2545 31.7028 25.3071 31.7754 25.3862 31.7897L25.5968 31.8218C25.5214 31.8646 25.4723 31.8979 25.4663 31.9027L25.4233 31.9324L25.4113 31.9848C25.2892 32.4772 25.5657 32.9447 25.8638 33.1541L25.853 33.216C25.8411 33.292 25.8578 33.3658 25.9032 33.4277C25.9463 33.4908 26.0134 33.5288 26.0876 33.5419C26.1032 33.5443 26.12 33.5454 26.1343 33.5454C26.2636 33.5454 26.3761 33.4562 26.4084 33.3266C26.5198 33.3396 26.6215 33.342 26.6909 33.342H26.7496L29.6477 33.8619L29.6968 33.8297C29.9278 33.6691 30.8076 33.0316 31.0961 32.821C31.1752 32.8888 31.2637 32.9506 31.3715 33.0019C31.2781 33.3135 31.2721 33.7929 31.6419 34.1711H24.2561V29.9351C24.2561 29.5247 24.1352 29.112 23.9927 28.7314H27.3206V28.729ZM30.9022 32.6045C30.6089 32.8186 29.8548 33.3658 29.5818 33.5562L26.9483 33.0863C26.9543 33.0625 26.9603 33.0399 26.9663 33.0161C27.001 32.8805 27.0357 32.6949 27.0381 32.4772L29.2514 32.513L29.2934 32.4701C29.3269 32.4368 30.0283 31.7635 30.3863 31.3757C30.4712 31.4816 30.5778 31.5827 30.7167 31.6719C30.6688 31.9289 30.6891 32.2952 30.9022 32.6045ZM26.4934 32.1513C26.5557 32.2809 26.6682 32.3678 26.746 32.4166C26.7437 32.5379 26.7317 32.727 26.6994 32.8936C26.6921 32.9305 26.6825 32.965 26.6718 32.9994C26.6658 33.0208 26.6598 33.0387 26.655 33.053C26.5389 33.053 26.3103 33.0387 26.1235 32.9709C25.9165 32.8948 25.6076 32.5177 25.6794 32.1025C25.7692 32.0478 25.9763 31.9324 26.1702 31.9324C26.3199 31.9312 26.4216 32.0014 26.4934 32.1513ZM26.2193 31.6291L26.2636 29.9435L26.6443 29.5426L26.8837 30.0399L26.412 31.6576L26.2193 31.6291ZM30.8783 40.3675C30.7346 40.3675 30.6018 40.3699 30.482 40.3746L30.7956 39.4052C30.8448 39.2707 30.5969 39.0982 30.4952 38.9472C30.6496 39.0436 31.0495 39.254 31.2422 39.3386C31.2218 39.3695 30.8783 40.3675 30.8783 40.3675ZM31.8623 39.266L31.6576 40.3271C31.527 40.3449 31.3882 40.3545 31.2458 40.3603L31.4613 39.3397C31.5259 39.0364 30.7059 38.9424 30.3013 38.3465C30.1038 38.5677 29.7315 38.6331 29.358 38.6331C29.0168 38.6331 28.6757 38.5784 28.4685 38.538C28.4159 38.5297 28.3656 38.5237 28.3166 38.5237C28.1968 38.5237 28.0879 38.5606 28.0125 38.6867L27.9526 38.7865L26.8358 38.5248L26.558 38.9817C26.5186 39.0554 26.5162 39.1185 26.5796 39.1875L26.655 39.2695C26.6036 39.4313 26.3714 39.6752 26.3714 39.6752L26.2049 39.4694C26.0733 39.323 26.0948 39.0567 26.2325 38.8092L26.6754 38.0658L27.6211 38.2013L27.4738 37.8683C27.2763 37.4281 27.5768 36.8678 27.6091 36.5455C27.5983 36.643 27.5086 36.6645 27.4032 36.6645C27.3075 36.6645 27.2009 36.6466 27.1303 36.6466C27.1028 36.6466 27.0788 36.649 27.0656 36.6585L26.8095 36.8131L26.6071 36.6359C26.5832 36.6014 26.5748 36.5217 26.6347 36.4622L27.1028 35.9412L26.5497 35.3L27.3242 35.6867L27.56 35.4023C27.6246 35.4654 27.5971 35.6307 27.5971 35.6307C27.8389 35.6367 28.5165 36.009 28.5524 36.8774C28.5548 36.9035 28.5548 36.9333 28.5548 36.9618C28.5548 36.9618 28.5608 36.9725 28.5727 36.9904C28.6206 37.0558 28.7523 37.2235 28.9199 37.239L29.99 37.3437H29.9948C30.1121 37.3437 30.3456 37.2069 30.6449 37.2069C30.8076 37.2069 30.9896 37.2485 31.1835 37.3698C31.1835 37.3698 31.2805 37.2937 31.4385 37.2853C31.4505 37.2842 31.4636 37.2842 31.4756 37.2842C31.9556 37.2842 32.1544 37.7148 32.4117 38.0728C32.6056 38.3452 32.8642 38.7497 32.8642 38.7497C32.7685 38.8627 32.6798 38.9246 32.5314 38.9246C32.4907 38.9246 32.444 38.921 32.3937 38.9115C31.879 38.8175 31.8048 37.7659 31.5115 37.6827C31.496 37.678 31.4792 37.6768 31.4649 37.6768C31.3702 37.6768 31.3284 37.76 31.3284 37.76C31.4624 38.1181 31.3846 38.2632 31.5283 38.5392C31.6361 38.7437 31.8276 38.9127 31.9065 38.9924C31.9065 38.9947 31.885 39.1494 31.8623 39.266ZM26.1151 38.262L26.1642 38.3845C26.1319 38.4916 25.7608 38.6438 25.7608 38.6438L25.6806 38.4702C25.5956 38.2847 25.6136 37.9717 25.8722 37.7802L26.4731 37.4162L27.1099 37.5507C27.0979 37.7517 27.2188 37.9016 27.2188 37.9016L26.5509 37.7743L26.1511 38.0491C26.084 38.0955 26.0793 38.1823 26.1151 38.262ZM31.9628 40.2688L32.146 39.3195C32.1555 39.2636 32.1675 39.1982 32.1759 39.1435C32.2274 39.1649 32.2824 39.1827 32.3423 39.1934C32.4105 39.2065 32.4739 39.2125 32.5314 39.2125C32.8115 39.2125 32.9743 39.0661 33.0832 38.9412L33.2245 38.7783L33.1096 38.5998C33.0988 38.582 32.845 38.1823 32.6487 37.9087C32.6104 37.8552 32.5733 37.8016 32.5362 37.7434C32.3136 37.4127 32.0346 36.9976 31.4756 36.9976L31.4253 36.9987C31.3332 37.0046 31.2541 37.0225 31.1907 37.0463C31.0147 36.9642 30.834 36.9226 30.6461 36.9226C30.415 36.9226 30.2199 36.9856 30.0906 37.0297C30.0535 37.0404 30.02 37.0522 29.9936 37.057L28.9486 36.9547C28.9354 36.9523 28.8923 36.9273 28.8409 36.8655V36.8607L29.0671 36.7703C29.0037 36.0221 28.2806 35.5617 27.8772 35.4059C27.8593 35.331 27.8234 35.256 27.7599 35.1953L27.5348 34.9836L27.3374 35.2192L27.2404 35.3393L25.7776 34.7421L26.7292 35.9293L26.3534 36.4943C26.2157 36.6395 26.3677 36.7846 26.3677 36.7846L26.7555 37.0498L27.1578 36.9012C27.1722 36.9012 27.1841 36.9047 27.1973 36.9059C27.1782 36.9666 27.153 37.2045 27.1363 37.2711L26.4384 37.1343L25.7045 37.5459C25.3275 37.8207 25.276 38.2762 25.416 38.5879L25.4974 38.7651L25.6136 39.015L25.8697 38.9091C25.8734 38.9079 25.8769 38.9068 25.8793 38.9043C25.7871 39.197 25.8243 39.4753 25.9895 39.6585L26.1451 39.8536L26.3521 40.1142L26.5796 39.8714C26.6466 39.8049 26.8633 39.5633 26.9303 39.3564L26.9795 39.1982L26.8681 39.0768L26.8502 39.0554L26.9746 38.8508L27.8856 39.0637L28.0903 39.1101L28.1992 38.9317L28.2591 38.8341C28.2699 38.814 28.2735 38.8104 28.3153 38.8104C28.3477 38.8104 28.38 38.814 28.4147 38.8211C28.7582 38.8854 29.0755 38.9175 29.3568 38.9175C29.6297 38.9175 29.7925 38.9068 29.9877 38.8425C29.9877 38.8425 30.4772 39.3944 30.494 39.4159L30.1948 40.3342L30.1815 40.3901C29.6142 40.4353 29.3376 40.559 29.0037 40.8909C28.5188 40.4127 28.1753 40.3628 26.8717 40.3628C25.3119 40.3628 24.2549 39.4539 24.2549 38.0027V34.4543H33.75L33.7525 38.0027C33.7536 39.1803 33.0581 40.0011 31.9628 40.2688ZM34.0158 28.729C33.8709 29.1096 33.75 29.5224 33.75 29.9328L33.7512 32.5807C33.1946 32.4879 33.1288 31.892 33.1263 31.8658L33.1156 31.7445L32.9959 31.7338C32.7541 31.7111 32.5937 31.6089 32.4584 31.478C32.1855 31.2067 32.1842 30.7667 32.1855 30.7631C32.1819 30.7857 31.885 31.1985 32.2298 31.6493C32.3746 31.8396 32.584 31.9562 32.8558 32.0026C32.9193 32.3333 33.167 32.7996 33.7512 32.8709V34.1676H32.1088C31.3511 33.7488 31.6719 33.0113 31.6875 32.9804L31.7521 32.84L31.6073 32.7854C30.7873 32.4831 31.0124 31.6695 31.0243 31.6351L31.0578 31.5161L30.9466 31.4638C30.2689 31.1521 30.3611 30.3111 30.3695 30.2765C30.1612 30.4443 30.0858 30.7869 30.2295 31.1224C30.1517 31.2104 30.0475 31.3174 29.9338 31.434C29.2323 31.2567 29.2108 30.6156 29.2108 30.5859L29.2096 30.4871L29.1174 30.4514C28.8433 30.3503 28.6553 30.1992 28.5632 29.9958C28.459 29.771 28.4961 29.5354 28.5248 29.4225C28.605 29.4403 28.6853 29.4534 28.7619 29.4593C28.8409 29.4676 28.9223 29.4724 29.0037 29.4724H29.0085H29.0145C29.0959 29.4724 29.176 29.4676 29.2551 29.4593C29.692 29.4165 30.1815 29.2297 30.6915 28.7277H34.0158V28.729ZM31.4564 26.0525L32.1053 26.4272H32.1148L32.2776 26.5212C31.9113 26.6223 31.6312 26.8043 31.3966 27.0434C31.3882 27.0505 31.3798 27.06 31.3715 27.0684C31.3176 27.1255 31.2637 27.1873 31.2134 27.2503C31.2039 27.2623 31.1943 27.2753 31.1835 27.2884C31.1332 27.3527 31.0866 27.4181 31.0411 27.4871C31.0339 27.499 31.0255 27.5109 31.0171 27.5216C30.9633 27.6013 30.9118 27.6869 30.8603 27.7749C30.3983 28.566 29.6608 29.0383 29.0048 29.0394C28.3501 29.0383 27.6127 28.566 27.1506 27.7749C27.1003 27.6894 27.0501 27.606 26.9962 27.5251C26.9854 27.5097 26.9758 27.4942 26.9663 27.4812C26.9208 27.4157 26.8753 27.3515 26.8286 27.2908C26.8166 27.2741 26.8059 27.2611 26.7939 27.2468C26.7437 27.1861 26.6921 27.1255 26.6406 27.0695C26.6299 27.0612 26.6227 27.0505 26.612 27.041C26.3761 26.8019 26.0972 26.621 25.7297 26.5212L25.8949 26.4272H25.9021L26.5509 26.0525L27.2177 25.6731L28.9988 26.6365L29.0025 26.633L29.0072 26.6365L30.7885 25.6731L31.4564 26.0525ZM30.5778 25.2543L29.158 25.9977V22.9882L31.0841 22.3387L30.5778 25.2543ZM29.0037 22.6575L26.892 21.8284C27.0716 21.4061 27.8999 21.0468 29.0037 21.0457C30.1085 21.0468 30.9369 21.4061 31.1153 21.8284L29.0037 22.6575Z" fill="black"/>
<path d="M60.9659 25.017V23.4545H71.875V25.017H67.3011V38H65.5398V25.017H60.9659ZM76.3548 23.4545V38H74.5934V23.4545H76.3548ZM91.4205 23.4545V38H89.7159L81.7898 26.5795H81.6477V38H79.8864V23.4545H81.5909L89.5455 34.9034H89.6875V23.4545H91.4205ZM94.945 38V23.4545H96.7063V30.6705H96.8768L103.411 23.4545H105.712L99.604 30.017L105.712 38H103.581L98.5245 31.2386L96.7063 33.2841V38H94.945ZM119.581 30.7273C119.581 32.2614 119.304 33.5871 118.75 34.7045C118.196 35.822 117.436 36.6837 116.47 37.2898C115.504 37.8958 114.401 38.1989 113.161 38.1989C111.92 38.1989 110.817 37.8958 109.851 37.2898C108.885 36.6837 108.125 35.822 107.571 34.7045C107.017 33.5871 106.74 32.2614 106.74 30.7273C106.74 29.1932 107.017 27.8674 107.571 26.75C108.125 25.6326 108.885 24.7708 109.851 24.1648C110.817 23.5587 111.92 23.2557 113.161 23.2557C114.401 23.2557 115.504 23.5587 116.47 24.1648C117.436 24.7708 118.196 25.6326 118.75 26.75C119.304 27.8674 119.581 29.1932 119.581 30.7273ZM117.876 30.7273C117.876 29.4678 117.666 28.4048 117.244 27.5384C116.828 26.6719 116.262 26.0161 115.547 25.571C114.837 25.1259 114.041 24.9034 113.161 24.9034C112.28 24.9034 111.482 25.1259 110.767 25.571C110.057 26.0161 109.491 26.6719 109.07 27.5384C108.653 28.4048 108.445 29.4678 108.445 30.7273C108.445 31.9867 108.653 33.0497 109.07 33.9162C109.491 34.7827 110.057 35.4384 110.767 35.8835C111.482 36.3286 112.28 36.5511 113.161 36.5511C114.041 36.5511 114.837 36.3286 115.547 35.8835C116.262 35.4384 116.828 34.7827 117.244 33.9162C117.666 33.0497 117.876 31.9867 117.876 30.7273ZM122.543 38V23.4545H131.264V25.017H124.304V29.9318H130.611V31.4943H124.304V38H122.543ZM134.281 38V23.4545H143.002V25.017H136.042V29.9318H142.349V31.4943H136.042V38H134.281Z" fill="white"/>
</svg>
